<?xml version="1.0" standalone="no"?>
<!DOCTYPE svg PUBLIC "-//W3C//DTD SVG 20010904//EN"
 "http://www.w3.org/TR/2001/REC-SVG-20010904/DTD/svg10.dtd">
<svg version="1.0" xmlns="http://www.w3.org/2000/svg"
 width="256.000000pt" height="256.000000pt" viewBox="0 0 256.000000 256.000000"
 preserveAspectRatio="xMidYMid meet">
<metadata>
Created by potrace 1.14, written by Peter Selinger 2001-2017
</metadata>
<g transform="translate(0.000000,256.000000) scale(0.100000,-0.100000)"
fill="#000000" stroke="none">
<path d="M935 2401 c-217 -91 -329 -163 -446 -283 -35 -35 -71 -86 -84 -114
-13 -28 -38 -69 -57 -90 -74 -84 -109 -148 -133 -244 -2 -8 -14 -40 -26 -70
-31 -79 -67 -183 -73 -216 -3 -16 -17 -76 -30 -134 -32 -139 -29 -202 15 -300
86 -193 219 -375 439 -600 96 -98 111 -108 165 -117 17 -2 67 -22 111 -44 45
-22 88 -41 95 -43 8 -1 19 -5 25 -9 11 -6 103 -33 154 -44 51 -10 98 -14 210
-15 142 -1 206 6 288 31 18 5 33 9 35 9 4 -2 52 13 72 22 86 38 111 48 119 48
5 0 12 4 15 9 3 5 25 20 49 33 23 13 42 27 42 32 0 4 5 8 11 8 15 0 109 81
173 148 28 30 57 60 64 67 6 8 12 16 12 20 0 3 9 16 20 28 19 20 94 145 95
157 0 6 59 84 87 114 22 24 20 8 22 161 2 97 7 140 20 170 9 22 16 54 15 70
-1 17 4 50 11 75 8 25 14 100 15 170 l1 124 -38 51 c-40 53 -82 133 -92 177
-3 15 -21 42 -39 62 -17 19 -54 61 -82 92 -102 118 -265 271 -322 303 -15 9
-30 19 -33 22 -8 8 -148 89 -215 123 l-60 31 -280 2 -280 2 -90 -38z"/>
</g>
</svg>
